PathFileType	4	(X/Y/Z)	15_2_69_p1_0-302_filt_butterworth.trc
DataRate	CameraRate	NumFrames	NumMarkers	Units	OrigDataRate	OrigDataStartFrame	OrigNumFrames
59.0	59.0	5	27	m	59.0	0	302
Frame#	Time	RHip			RKnee			RAnkle			RBigToe			RSmallToe			RHeel			LHip			LKnee			LAnkle			LBigToe			LSmallToe			LHeel			Neck			Head			Nose			RShoulder			RElbow			RWrist			RThumb			RIndex			RPinky			LShoulder			LElbow			LWrist			LThumb			LIndex			LPinky			
		X1	Y1	Z1	X2	Y2	Z2	X3	Y3	Z3	X4	Y4	Z4	X5	Y5	Z5	X6	Y6	Z6	X7	Y7	Z7	X8	Y8	Z8	X9	Y9	Z9	X10	Y10	Z10	X11	Y11	Z11	X12	Y12	Z12	X13	Y13	Z13	X14	Y14	Z14	X15	Y15	Z15	X16	Y16	Z16	X17	Y17	Z17	X18	Y18	Z18	X19	Y19	Z19	X20	Y20	Z20	X21	Y21	Z21	X22	Y22	Z22	X23	Y23	Z23	X24	Y24	Z24	X25	Y25	Z25	X26	Y26	Z26	X27	Y27	Z27	
0	0.0	0.19610521484596236	1.0023906383889758	0.07734651632415851	0.20700061053069768	0.6149191230303683	0.10668845466404872	0.2477811418690697	0.15623891051521338	0.17758995768309588	0.234095306991432	0.17384446586367336	-0.02312851016659294	0.2877706951984196	0.15618766313591492	0.02791345051018659	0.2463538457895535	0.07338701855007325	0.26293579075583584	0.006077789120420749	1.0047672740079707	0.07166942409595817	0.047447037883952194	0.583496012876904	0.1472769639787252	0.07742943622405582	0.13507339558839013	0.175265332088006	0.08105478996185807	0.1699369792889938	-0.010906556839959398	0.04603264639084094	0.15661616507551393	0.027569804700150944	0.08860385787734157	0.08772477247844276	0.20909878932493567	0.07209912104140485	1.5971855444768925	0.037076006167914344	0.04672617336838116	1.8310188085545287	0.0092593118277432	0.06291315121735933	1.7044778866762285	-0.018620524711272013	0.2400624831381703	1.5118521462713441	0.06506881286817201	0.27871730841248127	1.2598542545771583	0.0019506851207186093	0.1542251924101408	1.0793750904377177	-0.1140664960031569	0.11548127932338585	0.9613907054070793	-0.16873789201041645	0.11168912919471921	0.9321012097317872	-0.09657125153135794	0.12104932760882363	0.9186797471127535	-0.03623103322904919	-0.06137243500578729	1.4966541702958758	0.08394712755194472	-0.06528895092164629	1.244984010553541	0.04590571303973459	0.08010397466425649	1.065634292054016	-0.09844517841081303	0.17185198283387035	0.9843785571865488	-0.1346229090958199	0.16556785997087511	0.9497914144535688	-0.1299406716523905	0.08153300940518775	0.9411009298702578	-0.10066981792889218	
1	0.0169491525423728	0.19690298333800363	1.0013803379259039	0.07758805598975008	0.20726292207768965	0.6119907425194492	0.10743404561162924	0.24681494965219666	0.1550957235654274	0.17841491709045218	0.23029623986163886	0.17237195990537235	-0.0207592724161993	0.2861005157726792	0.1614959910199497	0.02286691472383178	0.24641133980847005	0.07324855397230867	0.2631379774900024	0.005308709932767778	1.0014241225645175	0.0798923177838631	0.04815513255324803	0.579370667661974	0.15097971295998086	0.07747139033820652	0.1356034158146501	0.17593440439285304	0.08110105611069468	0.17000870651378858	-0.01092403970135727	0.04599367220251019	0.15659578215209863	0.02748981540834987	0.08963274487396423	0.08843923922367468	0.21001534227732746	0.07262900726350602	1.597806047355317	0.03517747437356111	0.04702192760517767	1.8315049203937461	0.010354545049232278	0.06342143250853778	1.7042623146036533	-0.02006121892820545	0.23792027048178838	1.5125327918125884	0.0662816605591337	0.2764151623078924	1.2621676290551342	0.0011807493566173277	0.15308467307155518	1.0858827856525628	-0.1104273994710941	0.12333778155627184	0.9654462635880818	-0.17467083529511512	0.12564520704638296	0.9396784997048006	-0.11310445454541454	0.11675072690025727	0.9240857165198999	-0.029318629118835482	-0.06189909997910966	1.498806586427946	0.08504496413916746	-0.06660054682154426	1.2463579435102494	0.04621274663769351	0.07846874470654921	1.0680232740806868	-0.0918820656274458	0.17421261926647053	0.9954388412802201	-0.1347849320125522	0.1738504405617761	0.9507446857764018	-0.1258257829247344	0.0883488393115861	0.9378345960087718	-0.08668358844936765	
2	0.0338983050847457	0.19766771561389393	1.0005775031524748	0.07783822537768148	0.20752511550534025	0.6093752803879909	0.10810937282829976	0.24599362675146416	0.1544870098565112	0.17857869342195484	0.22820041572185903	0.1724450711461553	-0.020753991606754202	0.2849417326561081	0.16506004187280549	0.019363644412564548	0.24644391894549242	0.07324361833039572	0.2633157326739048	0.004636523705012888	0.9986570666753375	0.08677179555751033	0.04877845582695459	0.5757101951012825	0.15413924603464835	0.0775374662979362	0.13613829572459513	0.17641212989167357	0.08112575224878721	0.17005657247202044	-0.010955794807828403	0.0460051490984793	0.1566155697054299	0.02742226040707086	0.0905006084609897	0.08910361173879643	0.2107908692972816	0.0726341461887946	1.5981011920092456	0.03506743652258443	0.04753685529224032	1.8316476193457398	0.01199999905140664	0.06355500548462345	1.7042598660480408	-0.020491414841945943	0.23615974497085254	1.5128925263964201	0.06812072775131872	0.2760070529416079	1.2635759733306986	5.6133338699221325e-05	0.15281599165979973	1.0897024757656524	-0.10787764409402806	0.12674748369190023	0.9691035532877021	-0.17835774368287252	0.1326628044313289	0.9455530943538472	-0.1268721297733168	0.11422601210675912	0.9277185251113521	-0.027428905868557008	-0.06261828656187564	1.4999103646753	0.086886456615208	-0.06778221069857936	1.2468637166120082	0.045671930352455536	0.07593633531550247	1.0703715137953234	-0.08955619670203804	0.1735670843563945	1.00311763789511	-0.13523529195228415	0.17670111412914	0.9525998337471078	-0.12489214771024756	0.09156456261294847	0.9384008714910167	-0.0810175425617083	
3	0.0508474576271186	0.1983977012815232	0.9999631674582976	0.07809421910389397	0.20778569529917107	0.6070514947066289	0.10871654291348039	0.24530517842447633	0.15435338435395338	0.17816077445833772	0.22744799120004247	0.17367673739187153	-0.022510551871627687	0.28420659734053877	0.16719177755079248	0.017145307872601268	0.24645452933926432	0.07335521190660003	0.26347087172804823	0.004053604423961906	0.9964245410531364	0.09240543472519527	0.04932281903953618	0.5724943650440196	0.15679397940771245	0.0776235025286401	0.1366713782262703	0.17672044320613536	0.08113373966806309	0.17008770424736397	-0.010995079292955616	0.046040282078505766	0.15666790893627633	0.027369011197042846	0.09121950609793346	0.08971859518168271	0.21143642399767357	0.07223837910285394	1.5981283341700565	0.03632941172202164	0.04818785130878286	1.831562125078555	0.01398398960979591	0.0633821405559669	1.7044020247346996	-0.020065589671641515	0.23475838621862236	1.5129761951763538	0.07034854089851678	0.27698171360976487	1.264138596640933	-0.0010623635258541486	0.15320647903115045	1.091290140855654	-0.10623862684190469	0.1266664787414385	0.9724868280890001	-0.18025661286948325	0.13409202792173713	0.9499940076835905	-0.1379731738141278	0.11314715510994669	0.9298446774390995	-0.029319953456156178	-0.06344846643530254	1.5001902274010848	0.08919938997840221	-0.06881471200526235	1.2466653238836758	0.04468512109434	0.0726696995442915	1.072589865740062	-0.0903051960476947	0.17056990941627093	1.00804780149952	-0.13591361952146952	0.17524845132367226	0.9551739195870821	-0.1263974629534862	0.09193787690130159	0.941831175129925	-0.08174855045408883	
4	0.0677966101694915	0.19909122994878142	0.9995183642329806	0.07835323178432849	0.20804316594470365	0.6049981435459977	0.10925766246659131	0.2447376099288372	0.1546354620232417	0.17724064798033487	0.2276791229241391	0.17567989644837065	-0.025426837344189858	0.2838073613178036	0.16820315991022156	0.015953573400158162	0.24644611712842943	0.07356633498318814	0.263605210072938	0.0035523260764206534	0.9946849804106201	0.09689081259521323	0.04979403352545704	0.5697029473393747	0.15898232928415815	0.0777253374557134	0.13719600622772174	0.1768812789579061	0.08112987966044972	0.17010922892349328	-0.011035150290321618	0.04607227614234703	0.15674518104540644	0.0273319392789948	0.09180149524431101	0.09028489471020866	0.21196305999137866	0.07156554729126735	1.5979448295691272	0.038546919078909614	0.048891810534019045	1.8313636572602372	0.016094832499929768	0.06297110813291872	1.7046202743889372	-0.018938220636440517	0.2336936738383573	1.512828643305905	0.07272762645451775	0.27882787760850064	1.2639148082229188	-0.0018139418298611931	0.15404346604188343	1.0911017610012348	-0.10533174468466987	0.1240508597160542	0.9757203415750362	-0.18082543855074193	0.13128298408978756	0.9532702536986942	-0.14650648326691063	0.11318612779143748	0.9307306780551319	-0.033749861859575514	-0.06430811128060768	1.4998708969684462	0.0917115492270858	-0.06967882019410401	1.2459267593501102	0.04365417577366634	0.0688317904460916	1.0745891844570408	-0.0929666880775209	0.1658756257587285	1.0108621865617502	-0.1367595453265621	0.1706210227960782	0.9582840045177189	-0.12959942559900633	0.09022647976867224	0.9471569257384289	-0.08695348231468378	
